<?xml version="1.0" standalone="no"?>
<!DOCTYPE svg PUBLIC "-//W3C//DTD SVG 20010904//EN"
 "http://www.w3.org/TR/2001/REC-SVG-20010904/DTD/svg10.dtd">
<svg version="1.0" xmlns="http://www.w3.org/2000/svg"
 width="1392.000000pt" height="1392.000000pt" viewBox="0 0 1392.000000 1392.000000"
 preserveAspectRatio="xMidYMid meet">
<metadata>
Created by potrace 1.14, written by Peter Selinger 2001-2017
</metadata>
<g transform="translate(0.000000,1392.000000) scale(0.100000,-0.100000)"
fill="#000000" stroke="none">
<path d="M7280 8522 c-7 -3 -10 -502 -10 -1473 l0 -1469 340 0 340 0 0 153 0
152 27 -35 c115 -148 255 -234 464 -287 35 -8 359 -12 359 -4 0 4 8 7 18 8 61
5 208 57 270 97 23 14 44 26 48 26 16 0 159 128 200 178 25 31 51 64 57 72 24
30 118 200 110 200 -3 0 1 10 9 23 11 17 30 69 43 117 1 3 7 25 14 50 7 25 15
58 18 75 2 16 6 44 9 60 9 62 13 123 13 220 1 161 -8 243 -40 365 -11 41 -21
82 -23 91 -2 8 -11 32 -20 52 -8 21 -15 38 -15 40 1 8 -73 143 -106 192 -86
130 -250 267 -385 324 -30 13 -63 27 -72 32 -9 4 -61 17 -115 29 -77 15 -125
19 -228 16 -71 -2 -140 -7 -152 -10 -13 -3 -33 -8 -45 -11 -66 -14 -210 -74
-228 -95 -3 -3 -23 -17 -46 -31 -49 -32 -115 -97 -155 -152 l-29 -40 -2 519
-3 518 -328 0 c-180 1 -332 0 -337 -2z m1285 -1301 c59 -18 103 -41 148 -75
56 -43 116 -107 117 -123 0 -7 3 -13 8 -13 8 0 25 -35 54 -117 32 -90 31 -342
-2 -403 -6 -11 -8 -20 -5 -20 9 0 -46 -103 -79 -145 -40 -52 -60 -71 -121
-110 -67 -43 -133 -65 -219 -71 -63 -4 -98 0 -184 20 -46 10 -117 52 -168 99
-91 83 -135 168 -161 312 -9 52 -3 270 7 270 1 0 3 8 6 18 2 9 6 25 8 35 3 9
5 18 6 20 2 1 3 5 4 10 10 39 61 117 106 162 73 71 87 81 170 119 61 28 234
35 305 12z"/>
<path d="M251 8360 c-5 -11 -7 -2732 -2 -2773 1 -5 342 -6 759 -4 718 4 761 5
839 25 102 25 186 53 195 67 4 5 8 6 8 2 0 -9 106 49 126 68 6 5 26 21 45 34
39 28 123 122 147 166 10 17 20 32 23 35 3 3 18 37 32 75 74 194 67 418 -19
588 -45 90 -74 129 -153 205 -64 62 -201 142 -242 142 -10 0 -21 5 -24 11 -4
6 -13 8 -21 5 -8 -3 -14 -1 -14 4 0 5 12 13 28 16 81 20 215 111 283 193 70
84 106 157 136 275 3 12 7 73 9 136 7 248 -75 423 -267 568 -84 63 -241 131
-344 147 -11 2 -33 6 -50 9 -76 15 -225 18 -834 20 -572 1 -654 -1 -660 -14z
m1239 -545 c105 -28 161 -71 201 -151 31 -65 33 -188 5 -255 -26 -59 -86 -113
-154 -140 -53 -21 -76 -22 -322 -25 -146 -1 -272 -1 -280 2 -13 3 -15 42 -13
281 1 153 2 283 2 289 1 16 500 15 561 -1z m60 -1084 c121 -35 203 -114 227
-221 4 -14 6 -54 6 -90 0 -86 -31 -158 -90 -210 -80 -70 -98 -73 -453 -78
l-315 -3 0 303 c0 167 3 305 7 308 15 12 573 3 618 -9z"/>
<path d="M3520 7812 c-82 -17 -94 -20 -97 -22 -2 -2 -6 -3 -10 -5 -46 -12
-170 -74 -213 -104 -25 -17 -56 -39 -70 -49 -32 -22 -124 -117 -159 -162 -14
-19 -29 -37 -32 -40 -22 -17 -128 -236 -143 -295 -1 -5 -8 -28 -14 -50 -11
-40 -19 -78 -27 -125 -25 -147 -24 -403 1 -546 12 -66 47 -191 65 -231 10 -23
19 -49 19 -57 0 -9 5 -16 11 -16 5 0 8 -4 5 -9 -4 -5 -3 -11 1 -13 5 -1 19
-25 33 -51 99 -189 310 -372 505 -438 46 -15 39 -13 90 -24 22 -4 49 -10 60
-13 11 -3 83 -7 160 -8 115 -1 155 2 225 20 84 22 212 73 218 88 2 4 19 15 39
25 36 17 153 127 188 177 l20 28 0 -156 0 -156 340 2 340 3 0 1105 0 1105
-175 2 c-96 1 -184 3 -195 3 -11 0 -42 0 -70 0 -27 0 -54 1 -60 1 -5 0 -48 -1
-95 -2 l-86 -2 1 -155 c1 -141 0 -153 -14 -131 -25 39 -170 179 -186 179 -8 0
-15 4 -15 8 0 13 -154 87 -204 99 -149 36 -332 42 -456 15z m510 -587 c104
-20 244 -133 299 -242 18 -35 34 -72 37 -83 2 -11 7 -30 10 -42 19 -70 24
-210 10 -293 -25 -151 -114 -288 -234 -357 -31 -18 -59 -33 -62 -34 -3 0 -12
-4 -20 -7 -39 -17 -112 -26 -185 -23 -198 9 -348 122 -425 321 -32 82 -43 272
-21 378 7 31 11 58 10 59 -1 2 15 35 35 73 73 138 205 236 346 258 33 5 156 0
200 -8z"/>
<path d="M6918 7826 c-1 -2 -33 -6 -71 -9 -37 -3 -71 -8 -75 -11 -5 -3 -20 -7
-34 -10 -53 -9 -180 -69 -248 -117 -68 -48 -155 -130 -194 -183 -48 -66 -45
-65 -46 -6 -1 30 -1 112 -1 182 l1 127 -295 0 c-162 0 -299 2 -305 6 -5 3 -10
2 -10 -2 0 -5 -16 -7 -35 -5 -25 3 -35 0 -35 -9 -1 -21 -1 -2097 0 -2156 l0
-53 339 0 339 0 2 558 c1 502 3 617 9 617 1 0 4 11 6 25 9 50 11 60 18 66 4 4
7 16 7 26 0 10 4 18 9 18 5 0 12 10 15 23 15 54 108 125 206 156 86 27 130 32
290 34 l135 1 0 358 c0 261 -3 359 -12 362 -6 3 -13 3 -15 2z"/>
<path d="M10798 7825 c-2 -3 -24 -7 -49 -9 -58 -7 -93 -14 -124 -26 -14 -5
-25 -8 -25 -5 0 2 -20 -4 -45 -15 -25 -11 -45 -17 -45 -14 0 3 -12 -1 -27 -9
-180 -89 -247 -134 -336 -223 -60 -59 -163 -194 -150 -194 5 0 3 -4 -3 -8 -43
-28 -129 -280 -150 -442 -15 -119 -7 -374 16 -471 6 -26 13 -53 14 -60 2 -11
21 -78 31 -109 2 -6 32 -74 53 -120 19 -42 92 -154 104 -158 4 -2 8 -8 8 -13
0 -6 10 -20 23 -33 12 -13 34 -36 48 -52 86 -97 252 -199 411 -253 121 -41
264 -62 418 -61 l105 0 0 -316 c0 -311 0 -316 22 -333 20 -17 103 -18 1398
-18 1341 0 1377 1 1401 19 l24 19 0 630 0 630 -25 24 -24 25 -387 0 -386 0 5
268 c5 285 13 340 66 425 23 37 85 97 101 97 5 0 10 3 10 8 0 9 68 37 130 53
64 16 107 20 256 22 l130 2 -2 355 c0 195 -2 358 -3 362 0 4 -7 6 -13 3 -7 -2
-40 -6 -73 -9 -82 -8 -106 -13 -180 -41 -148 -55 -304 -174 -389 -295 l-31
-45 -3 183 -2 182 -53 0 c-28 0 -59 0 -67 1 -16 0 -193 -1 -270 -2 -25 -1 -51
0 -57 0 -17 1 -33 1 -140 0 l-93 -1 -1 -351 c-1 -194 0 -356 1 -362 1 -5 2
-14 2 -20 -2 -20 -3 -147 -3 -484 0 -190 -1 -347 -3 -349 -4 -3 -290 -5 -402
-3 l-32 1 13 38 c7 20 11 39 8 42 -2 3 -165 5 -360 5 l-356 0 -26 -42 c-24
-40 -29 -43 -71 -44 -25 -1 -50 -1 -56 0 -20 2 -58 -46 -59 -75 0 -39 -50 -54
-162 -49 -158 6 -270 71 -341 196 -25 45 -57 154 -57 194 l0 30 767 0 766 0 6
40 c6 48 1 313 -8 370 -11 67 -13 78 -27 125 -7 25 -13 47 -13 50 -3 16 -42
109 -54 128 -8 12 -11 22 -7 22 3 0 -3 13 -14 29 -12 16 -21 32 -21 36 0 16
-101 145 -160 205 -61 63 -175 145 -237 172 -15 7 -30 16 -33 19 -7 9 -207 76
-250 84 -19 3 -48 8 -65 11 -37 7 -361 14 -367 9z m257 -549 c99 -15 217 -99
269 -192 26 -46 44 -130 37 -172 -1 -5 -811 -9 -843 -3 -10 2 19 97 48 157 13
28 44 72 68 97 47 47 147 103 206 112 19 3 36 7 37 9 4 4 137 -2 178 -8z"/>
</g>
</svg>
